<?xml version="1.0" encoding="UTF-8"?>
<svg id="a" xmlns="http://www.w3.org/2000/svg" width="300" height="300" viewBox="0 0 300 300">
  <path d="M173.4,160.3c4.8-4.7,8.2-11.2,9.7-16.8,7-26.6,13.3-64.2,16.2-83.3,2.6-17,3.1-23.5,3.3-32.7,0-1.6-.9-3.8-3.7-4.6-2.4-.6-3.9.9-5.1,3.2-16,34.2-28.8,61.7-41.5,88.9l-21.1,45.2c-6.1,13.2-12.7,27.1-19.8,42.4,7.8,1.1,14.5,4.6,19.5,9.6,4.3-9.5,11.6-25.2,16.2-35.2,1.2-2.6,3-4.9,5.2-6.6l21.1-10.2h0v.1h0Z" style="fill:#c6c6c6; stroke:#000; stroke-miterlimit:10; stroke-width:8px;" />
  <path d="M115.4,35.9c-1.5-3.2-3-6.4-4.5-9.6-1.2-2.3-2.7-3.8-5.1-3.2-2.9.7-3.8,2.9-3.7,4.6.2,9.1.8,15.7,3.4,32.7,2.9,19,9.2,56.7,16.2,83.3,1.4,5.6,4.8,12.1,9.7,16.8.8.8,1.7,1.6,2.6,2.3,2.9,2.2,6.4,3.3,10,4,3.1.6,6.1,2,8.5,3.9,2.2,1.8,3.9,4,5.2,6.6,4.8,10.5,12.6,27.4,16.8,36.7,4.9-5.2,11.6-8.8,19.4-9.9-29.9-64.2-48.9-104.9-78.4-168.1h0l-.1-.1h0Z" style="fill:#c6c6c6; stroke:#000; stroke-miterlimit:10; stroke-width:8px;" />
  <path d="M251,261c-.4-1.6-1.5-3.6-5.8-4-7.1-.7-13.9-3.9-14.8-5,1.8-4.4,2.7-9.3,2.7-14.6,0-18.4-14-33.8-34-33.8s-34,15.6-34,33.8.2,4.3.5,6.4c2.6,16.9,15.9,28.1,33.5,28.1s16.4-2.6,22.1-7.3c2.1,1.2,4.3,2,6.5,2.5,6,1.4,9.2,2,15.3,1.7,2.2-.1,4.4-.4,6.3-1.5,1.9-1.1,2.1-4.1,1.6-6.2h0l.1-.1h0ZM199.8,254.2c-9.6,0-16.5-6.8-16.5-16.7s6.7-16.4,16.5-16.4,16.5,7.5,16.5,16.4-6.5,16.7-16.5,16.7Z" style="fill:#3d8dcc; stroke:#000; stroke-miterlimit:10; stroke-width:8px;" />
  <path d="M106,202.3c-20.8,0-35.2,16.1-35.2,35s14.7,35.7,35.2,35.7,35.2-14.7,35.2-35.7-14.5-35-35.2-35h0ZM106,254.2c-9.6,0-16.5-6.8-16.5-16.7s6.7-16.4,16.5-16.4,16.5,7.5,16.5,16.4-6.5,16.7-16.5,16.7Z" style="fill:#3d8dcc; stroke:#000; stroke-miterlimit:10; stroke-width:8px;" />
  <circle cx="148.5" cy="148.8" r="7" style="fill:none; stroke:#000; stroke-miterlimit:10; stroke-width:8px;" />
</svg>